<svg width="120" height="120" viewBox="0 0 120 120" fill="none" xmlns="http://www.w3.org/2000/svg">
<circle cx="60" cy="57" r="54" fill="url(#paint0_linear_482_3302)"/>
<g filter="url(#filter0_dd_482_3302)">
<g filter="url(#filter1_i_482_3302)">
<circle cx="60" cy="57" r="40.5" fill="white"/>
</g>
<circle cx="60" cy="57" r="37.3333" stroke="white" stroke-width="6.33333"/>
<g clip-path="url(#clip0_482_3302)">
<path d="M69.2888 34.7288H50.1C48.1591 34.7288 46.8966 36.0054 46.8809 37.9932C46.8809 50.8731 46.8809 63.7369 46.8966 76.6169C46.8966 77.1663 46.9755 77.6835 47.228 78.1844C47.6857 79.1379 48.4904 79.6227 49.453 79.8813H69.9516C71.7505 79.251 72.508 78.2976 72.508 76.6169V38.0093C72.508 36.0054 71.2456 34.7288 69.2888 34.7288ZM63.1819 37.2983C63.1976 37.6377 62.9294 37.6538 62.6611 37.6538H56.7277C56.4752 37.6538 56.207 37.6377 56.207 37.2983C56.207 36.9589 56.4595 36.9266 56.7277 36.9266H62.6611C62.9294 36.9266 63.1819 36.9589 63.1819 37.2983ZM59.6944 78.346C58.8738 78.346 58.2111 77.6511 58.2269 76.7946C58.2426 75.9543 58.9054 75.2917 59.726 75.2917C60.5308 75.3079 61.1778 76.0028 61.1778 76.827C61.1778 77.6673 60.4992 78.346 59.6944 78.346ZM49.3899 74.2413C49.027 74.2413 48.9481 74.1443 48.9481 73.7888C48.9639 68.1326 48.9639 62.4926 48.9639 56.8525C48.9639 51.2448 48.9639 45.6371 48.9481 40.0133C48.9481 39.6577 49.027 39.5608 49.3899 39.5608C56.2543 39.5769 63.1345 39.5769 69.9989 39.5608C70.3619 39.5608 70.4408 39.6577 70.4408 40.0133V73.7888C70.4408 74.1443 70.3619 74.2413 69.9989 74.2413C63.1345 74.2251 56.2701 74.2251 49.3899 74.2413Z" fill="black"/>
<path d="M57.108 48.4736H56.582V49.0647H57.108V48.4736Z" fill="black"/>
<path d="M57.6334 48.4735H57.1074V49.0646H57.6334V48.4735Z" fill="black"/>
<path d="M58.1588 48.4736H57.6328V49.0647H58.1588V48.4736Z" fill="black"/>
<path d="M59.7369 48.4736H59.2109V49.0647H59.7369V48.4736Z" fill="black"/>
<path d="M60.2643 48.4736H59.7383V49.0647H60.2643V48.4736Z" fill="black"/>
<path d="M60.7897 48.4736H60.2637V49.0647H60.7897V48.4736Z" fill="black"/>
<path d="M62.3678 48.4736H61.8418V49.0647H62.3678V48.4736Z" fill="black"/>
<path d="M57.108 49.0642H56.582V49.6553H57.108V49.0642Z" fill="black"/>
<path d="M57.6334 49.0648H57.1074V49.6559H57.6334V49.0648Z" fill="black"/>
<path d="M58.1588 49.0648H57.6328V49.6559H58.1588V49.0648Z" fill="black"/>
<path d="M58.6862 49.0642H58.1602V49.6553H58.6862V49.0642Z" fill="black"/>
<path d="M59.2116 49.0642H58.6855V49.6553H59.2116V49.0642Z" fill="black"/>
<path d="M59.7369 49.0648H59.2109V49.6559H59.7369V49.0648Z" fill="black"/>
<path d="M60.2643 49.0642H59.7383V49.6553H60.2643V49.0642Z" fill="black"/>
<path d="M60.7897 49.0642H60.2637V49.6553H60.7897V49.0642Z" fill="black"/>
<path d="M61.8405 49.0642H61.3145V49.6553H61.8405V49.0642Z" fill="black"/>
<path d="M62.3678 49.0642H61.8418V49.6553H62.3678V49.0642Z" fill="black"/>
<path d="M62.8932 49.0648H62.3672V49.6559H62.8932V49.0648Z" fill="black"/>
<path d="M63.4186 49.0648H62.8926V49.6559H63.4186V49.0648Z" fill="black"/>
<path d="M57.108 49.6554H56.582V50.2465H57.108V49.6554Z" fill="black"/>
<path d="M57.6334 49.6554H57.1074V50.2465H57.6334V49.6554Z" fill="black"/>
<path d="M58.1588 49.6554H57.6328V50.2465H58.1588V49.6554Z" fill="black"/>
<path d="M58.6862 49.6554H58.1602V50.2465H58.6862V49.6554Z" fill="black"/>
<path d="M59.7369 49.6554H59.2109V50.2465H59.7369V49.6554Z" fill="black"/>
<path d="M60.2643 49.6554H59.7383V50.2465H60.2643V49.6554Z" fill="black"/>
<path d="M63.4186 49.6554H62.8926V50.2465H63.4186V49.6554Z" fill="black"/>
<path d="M57.6334 50.2466H57.1074V50.8377H57.6334V50.2466Z" fill="black"/>
<path d="M58.1588 50.2466H57.6328V50.8377H58.1588V50.2466Z" fill="black"/>
<path d="M58.6862 50.2466H58.1602V50.8377H58.6862V50.2466Z" fill="black"/>
<path d="M59.2116 50.2466H58.6855V50.8377H59.2116V50.2466Z" fill="black"/>
<path d="M60.2643 50.2466H59.7383V50.8377H60.2643V50.2466Z" fill="black"/>
<path d="M60.7897 50.2466H60.2637V50.8377H60.7897V50.2466Z" fill="black"/>
<path d="M61.8405 50.2466H61.3145V50.8377H61.8405V50.2466Z" fill="black"/>
<path d="M62.8932 50.2466H62.3672V50.8377H62.8932V50.2466Z" fill="black"/>
<path d="M63.4186 50.2466H62.8926V50.8377H63.4186V50.2466Z" fill="black"/>
<path d="M57.108 50.8386H56.582V51.4297H57.108V50.8386Z" fill="black"/>
<path d="M57.6334 50.8375H57.1074V51.4286H57.6334V50.8375Z" fill="black"/>
<path d="M58.1588 50.8375H57.6328V51.4286H58.1588V50.8375Z" fill="black"/>
<path d="M59.2116 50.8386H58.6855V51.4297H59.2116V50.8386Z" fill="black"/>
<path d="M59.7369 50.8375H59.2109V51.4286H59.7369V50.8375Z" fill="black"/>
<path d="M60.7897 50.8386H60.2637V51.4297H60.7897V50.8386Z" fill="black"/>
<path d="M61.8405 50.8386H61.3145V51.4297H61.8405V50.8386Z" fill="black"/>
<path d="M62.3678 50.8386H61.8418V51.4297H62.3678V50.8386Z" fill="black"/>
<path d="M62.8932 50.8375H62.3672V51.4286H62.8932V50.8375Z" fill="black"/>
<path d="M57.6334 51.4285H57.1074V52.0196H57.6334V51.4285Z" fill="black"/>
<path d="M59.7369 51.4285H59.2109V52.0196H59.7369V51.4285Z" fill="black"/>
<path d="M60.2643 51.4285H59.7383V52.0196H60.2643V51.4285Z" fill="black"/>
<path d="M61.8405 51.4285H61.3145V52.0196H61.8405V51.4285Z" fill="black"/>
<path d="M63.4186 51.4285H62.8926V52.0196H63.4186V51.4285Z" fill="black"/>
<path d="M57.108 52.0204H56.582V52.6115H57.108V52.0204Z" fill="black"/>
<path d="M58.1588 52.0204H57.6328V52.6115H58.1588V52.0204Z" fill="black"/>
<path d="M59.2116 52.0204H58.6855V52.6115H59.2116V52.0204Z" fill="black"/>
<path d="M60.2643 52.0204H59.7383V52.6115H60.2643V52.0204Z" fill="black"/>
<path d="M61.3151 52.0204H60.7891V52.6115H61.3151V52.0204Z" fill="black"/>
<path d="M62.3678 52.0204H61.8418V52.6115H62.3678V52.0204Z" fill="black"/>
<path d="M63.4186 52.0204H62.8926V52.6115H63.4186V52.0204Z" fill="black"/>
<path d="M57.6334 52.6113H57.1074V53.2024H57.6334V52.6113Z" fill="black"/>
<path d="M59.2116 52.6113H58.6855V53.2024H59.2116V52.6113Z" fill="black"/>
<path d="M60.2643 52.6113H59.7383V53.2024H60.2643V52.6113Z" fill="black"/>
<path d="M52.8991 53.2023H52.373V53.7934H52.8991V53.2023Z" fill="black"/>
<path d="M54.4772 53.2023H53.9512V53.7934H54.4772V53.2023Z" fill="black"/>
<path d="M55.0026 53.2021H54.4766V53.7932H55.0026V53.2021Z" fill="black"/>
<path d="M55.5299 53.2021H55.0039V53.7932H55.5299V53.2021Z" fill="black"/>
<path d="M56.0553 53.2023H55.5293V53.7934H56.0553V53.2023Z" fill="black"/>
<path d="M56.5807 53.2021H56.0547V53.7932H56.5807V53.2021Z" fill="black"/>
<path d="M57.108 53.2021H56.582V53.7932H57.108V53.2021Z" fill="black"/>
<path d="M57.6334 53.2023H57.1074V53.7934H57.6334V53.2023Z" fill="black"/>
<path d="M59.2116 53.2021H58.6855V53.7932H59.2116V53.2021Z" fill="black"/>
<path d="M59.7369 53.2021H59.2109V53.7932H59.7369V53.2021Z" fill="black"/>
<path d="M60.2643 53.2021H59.7383V53.7932H60.2643V53.2021Z" fill="black"/>
<path d="M60.7897 53.2021H60.2637V53.7932H60.7897V53.2021Z" fill="black"/>
<path d="M61.3151 53.2023H60.7891V53.7934H61.3151V53.2023Z" fill="black"/>
<path d="M61.8405 53.2021H61.3145V53.7932H61.8405V53.2021Z" fill="black"/>
<path d="M63.9459 53.2021H63.4199V53.7932H63.9459V53.2021Z" fill="black"/>
<path d="M65.5241 53.2021H64.998V53.7932H65.5241V53.2021Z" fill="black"/>
<path d="M66.5748 53.2021H66.0488V53.7932H66.5748V53.2021Z" fill="black"/>
<path d="M67.1022 53.2021H66.5762V53.7932H67.1022V53.2021Z" fill="black"/>
<path d="M67.6276 53.2021H67.1016V53.7932H67.6276V53.2021Z" fill="black"/>
<path d="M52.8991 53.7931H52.373V54.3842H52.8991V53.7931Z" fill="black"/>
<path d="M53.9518 53.7932H53.4258V54.3843H53.9518V53.7932Z" fill="black"/>
<path d="M57.108 53.7932H56.582V54.3843H57.108V53.7932Z" fill="black"/>
<path d="M59.2116 53.7932H58.6855V54.3843H59.2116V53.7932Z" fill="black"/>
<path d="M60.2643 53.7932H59.7383V54.3843H60.2643V53.7932Z" fill="black"/>
<path d="M61.8405 53.7932H61.3145V54.3843H61.8405V53.7932Z" fill="black"/>
<path d="M62.8932 53.7931H62.3672V54.3842H62.8932V53.7931Z" fill="black"/>
<path d="M63.9459 53.7932H63.4199V54.3843H63.9459V53.7932Z" fill="black"/>
<path d="M64.9967 53.7932H64.4707V54.3843H64.9967V53.7932Z" fill="black"/>
<path d="M65.5241 53.7932H64.998V54.3843H65.5241V53.7932Z" fill="black"/>
<path d="M66.5748 53.7932H66.0488V54.3843H66.5748V53.7932Z" fill="black"/>
<path d="M67.1022 53.7932H66.5762V54.3843H67.1022V53.7932Z" fill="black"/>
<path d="M53.4244 54.3844H52.8984V54.9755H53.4244V54.3844Z" fill="black"/>
<path d="M53.9518 54.3844H53.4258V54.9755H53.9518V54.3844Z" fill="black"/>
<path d="M55.0026 54.3844H54.4766V54.9755H55.0026V54.3844Z" fill="black"/>
<path d="M55.5299 54.3844H55.0039V54.9755H55.5299V54.3844Z" fill="black"/>
<path d="M56.0553 54.3844H55.5293V54.9755H56.0553V54.3844Z" fill="black"/>
<path d="M57.6334 54.3844H57.1074V54.9755H57.6334V54.3844Z" fill="black"/>
<path d="M58.1588 54.3844H57.6328V54.9755H58.1588V54.3844Z" fill="black"/>
<path d="M60.2643 54.3844H59.7383V54.9755H60.2643V54.3844Z" fill="black"/>
<path d="M61.8405 54.3844H61.3145V54.9755H61.8405V54.3844Z" fill="black"/>
<path d="M62.3678 54.3844H61.8418V54.9755H62.3678V54.3844Z" fill="black"/>
<path d="M63.9459 54.3844H63.4199V54.9755H63.9459V54.3844Z" fill="black"/>
<path d="M64.9967 54.3844H64.4707V54.9755H64.9967V54.3844Z" fill="black"/>
<path d="M66.5748 54.3844H66.0488V54.9755H66.5748V54.3844Z" fill="black"/>
<path d="M54.4772 54.9753H53.9512V55.5664H54.4772V54.9753Z" fill="black"/>
<path d="M55.0026 54.9753H54.4766V55.5664H55.0026V54.9753Z" fill="black"/>
<path d="M57.108 54.9753H56.582V55.5664H57.108V54.9753Z" fill="black"/>
<path d="M57.6334 54.9753H57.1074V55.5664H57.6334V54.9753Z" fill="black"/>
<path d="M58.1588 54.9753H57.6328V55.5664H58.1588V54.9753Z" fill="black"/>
<path d="M60.2643 54.9753H59.7383V55.5664H60.2643V54.9753Z" fill="black"/>
<path d="M60.7897 54.9753H60.2637V55.5664H60.7897V54.9753Z" fill="black"/>
<path d="M61.8405 54.9753H61.3145V55.5664H61.8405V54.9753Z" fill="black"/>
<path d="M63.4186 54.9753H62.8926V55.5664H63.4186V54.9753Z" fill="black"/>
<path d="M63.9459 54.9753H63.4199V55.5664H63.9459V54.9753Z" fill="black"/>
<path d="M64.4713 54.9753H63.9453V55.5664H64.4713V54.9753Z" fill="black"/>
<path d="M66.0494 54.9753H65.5234V55.5664H66.0494V54.9753Z" fill="black"/>
<path d="M67.6276 54.9753H67.1016V55.5664H67.6276V54.9753Z" fill="black"/>
<path d="M52.8991 55.5665H52.373V56.1576H52.8991V55.5665Z" fill="black"/>
<path d="M53.4244 55.5665H52.8984V56.1576H53.4244V55.5665Z" fill="black"/>
<path d="M53.9518 55.5665H53.4258V56.1576H53.9518V55.5665Z" fill="black"/>
<path d="M54.4772 55.5665H53.9512V56.1576H54.4772V55.5665Z" fill="black"/>
<path d="M56.0553 55.5665H55.5293V56.1576H56.0553V55.5665Z" fill="black"/>
<path d="M58.1588 55.5665H57.6328V56.1576H58.1588V55.5665Z" fill="black"/>
<path d="M59.2116 55.5665H58.6855V56.1576H59.2116V55.5665Z" fill="black"/>
<path d="M59.7369 55.5665H59.2109V56.1576H59.7369V55.5665Z" fill="black"/>
<path d="M60.2643 55.5665H59.7383V56.1576H60.2643V55.5665Z" fill="black"/>
<path d="M62.3678 55.5665H61.8418V56.1576H62.3678V55.5665Z" fill="black"/>
<path d="M63.4186 55.5665H62.8926V56.1576H63.4186V55.5665Z" fill="black"/>
<path d="M64.4713 55.5665H63.9453V56.1576H64.4713V55.5665Z" fill="black"/>
<path d="M64.9967 55.5665H64.4707V56.1576H64.9967V55.5665Z" fill="black"/>
<path d="M67.6276 55.5665H67.1016V56.1576H67.6276V55.5665Z" fill="black"/>
<path d="M53.9518 56.1575H53.4258V56.7486H53.9518V56.1575Z" fill="black"/>
<path d="M58.6862 56.1575H58.1602V56.7486H58.6862V56.1575Z" fill="black"/>
<path d="M59.2116 56.1575H58.6855V56.7486H59.2116V56.1575Z" fill="black"/>
<path d="M61.8405 56.1575H61.3145V56.7486H61.8405V56.1575Z" fill="black"/>
<path d="M62.3678 56.1575H61.8418V56.7486H62.3678V56.1575Z" fill="black"/>
<path d="M63.9459 56.1575H63.4199V56.7486H63.9459V56.1575Z" fill="black"/>
<path d="M64.4713 56.1575H63.9453V56.7486H64.4713V56.1575Z" fill="black"/>
<path d="M65.5241 56.1575H64.998V56.7486H65.5241V56.1575Z" fill="black"/>
<path d="M66.0494 56.1575H65.5234V56.7486H66.0494V56.1575Z" fill="black"/>
<path d="M66.5748 56.1575H66.0488V56.7486H66.5748V56.1575Z" fill="black"/>
<path d="M67.1022 56.1575H66.5762V56.7486H67.1022V56.1575Z" fill="black"/>
<path d="M67.6276 56.1575H67.1016V56.7486H67.6276V56.1575Z" fill="black"/>
<path d="M53.4244 56.7483H52.8984V57.3394H53.4244V56.7483Z" fill="black"/>
<path d="M55.5299 56.7483H55.0039V57.3394H55.5299V56.7483Z" fill="black"/>
<path d="M56.0553 56.7483H55.5293V57.3394H56.0553V56.7483Z" fill="black"/>
<path d="M56.5807 56.7483H56.0547V57.3394H56.5807V56.7483Z" fill="black"/>
<path d="M57.108 56.7483H56.582V57.3394H57.108V56.7483Z" fill="black"/>
<path d="M58.1588 56.7483H57.6328V57.3394H58.1588V56.7483Z" fill="black"/>
<path d="M60.2643 56.7483H59.7383V57.3394H60.2643V56.7483Z" fill="black"/>
<path d="M60.7897 56.7483H60.2637V57.3394H60.7897V56.7483Z" fill="black"/>
<path d="M61.8405 56.7483H61.3145V57.3394H61.8405V56.7483Z" fill="black"/>
<path d="M62.8932 56.7484H62.3672V57.3395H62.8932V56.7484Z" fill="black"/>
<path d="M63.4186 56.7483H62.8926V57.3394H63.4186V56.7483Z" fill="black"/>
<path d="M63.9459 56.7483H63.4199V57.3394H63.9459V56.7483Z" fill="black"/>
<path d="M64.4713 56.7484H63.9453V57.3395H64.4713V56.7484Z" fill="black"/>
<path d="M64.9967 56.7483H64.4707V57.3394H64.9967V56.7483Z" fill="black"/>
<path d="M66.5748 56.7483H66.0488V57.3394H66.5748V56.7483Z" fill="black"/>
<path d="M67.6276 56.7483H67.1016V57.3394H67.6276V56.7483Z" fill="black"/>
<path d="M52.8991 57.3403H52.373V57.9314H52.8991V57.3403Z" fill="black"/>
<path d="M53.4244 57.3403H52.8984V57.9314H53.4244V57.3403Z" fill="black"/>
<path d="M55.0026 57.3403H54.4766V57.9314H55.0026V57.3403Z" fill="black"/>
<path d="M56.5807 57.3403H56.0547V57.9314H56.5807V57.3403Z" fill="black"/>
<path d="M57.6334 57.3403H57.1074V57.9314H57.6334V57.3403Z" fill="black"/>
<path d="M58.1588 57.3403H57.6328V57.9314H58.1588V57.3403Z" fill="black"/>
<path d="M59.7369 57.3403H59.2109V57.9314H59.7369V57.3403Z" fill="black"/>
<path d="M60.2643 57.3403H59.7383V57.9314H60.2643V57.3403Z" fill="black"/>
<path d="M61.3151 57.3403H60.7891V57.9314H61.3151V57.3403Z" fill="black"/>
<path d="M62.3678 57.3403H61.8418V57.9314H62.3678V57.3403Z" fill="black"/>
<path d="M64.9967 57.3403H64.4707V57.9314H64.9967V57.3403Z" fill="black"/>
<path d="M65.5241 57.3403H64.998V57.9314H65.5241V57.3403Z" fill="black"/>
<path d="M66.5748 57.3403H66.0488V57.9314H66.5748V57.3403Z" fill="black"/>
<path d="M67.6276 57.3403H67.1016V57.9314H67.6276V57.3403Z" fill="black"/>
<path d="M55.0026 57.9312H54.4766V58.5222H55.0026V57.9312Z" fill="black"/>
<path d="M56.0553 57.9312H55.5293V58.5222H56.0553V57.9312Z" fill="black"/>
<path d="M59.2116 57.9312H58.6855V58.5222H59.2116V57.9312Z" fill="black"/>
<path d="M60.7897 57.9312H60.2637V58.5222H60.7897V57.9312Z" fill="black"/>
<path d="M62.8932 57.9312H62.3672V58.5222H62.8932V57.9312Z" fill="black"/>
<path d="M63.4186 57.9312H62.8926V58.5222H63.4186V57.9312Z" fill="black"/>
<path d="M66.0494 57.9312H65.5234V58.5222H66.0494V57.9312Z" fill="black"/>
<path d="M52.8991 58.5221H52.373V59.1132H52.8991V58.5221Z" fill="black"/>
<path d="M54.4772 58.5221H53.9512V59.1132H54.4772V58.5221Z" fill="black"/>
<path d="M57.108 58.5221H56.582V59.1132H57.108V58.5221Z" fill="black"/>
<path d="M57.6334 58.5221H57.1074V59.1132H57.6334V58.5221Z" fill="black"/>
<path d="M61.8405 58.5221H61.3145V59.1132H61.8405V58.5221Z" fill="black"/>
<path d="M62.3678 58.5221H61.8418V59.1132H62.3678V58.5221Z" fill="black"/>
<path d="M62.8932 58.5221H62.3672V59.1132H62.8932V58.5221Z" fill="black"/>
<path d="M65.5241 58.5221H64.998V59.1132H65.5241V58.5221Z" fill="black"/>
<path d="M66.5748 58.5221H66.0488V59.1132H66.5748V58.5221Z" fill="black"/>
<path d="M67.1022 58.5221H66.5762V59.1132H67.1022V58.5221Z" fill="black"/>
<path d="M52.8991 59.1134H52.373V59.7045H52.8991V59.1134Z" fill="black"/>
<path d="M53.4244 59.1133H52.8984V59.7044H53.4244V59.1133Z" fill="black"/>
<path d="M53.9518 59.1133H53.4258V59.7044H53.9518V59.1133Z" fill="black"/>
<path d="M56.0553 59.1134H55.5293V59.7045H56.0553V59.1134Z" fill="black"/>
<path d="M56.5807 59.1133H56.0547V59.7044H56.5807V59.1133Z" fill="black"/>
<path d="M57.6334 59.1134H57.1074V59.7045H57.6334V59.1134Z" fill="black"/>
<path d="M58.1588 59.1133H57.6328V59.7044H58.1588V59.1133Z" fill="black"/>
<path d="M59.7369 59.1133H59.2109V59.7044H59.7369V59.1133Z" fill="black"/>
<path d="M60.2643 59.1133H59.7383V59.7044H60.2643V59.1133Z" fill="black"/>
<path d="M61.3151 59.1134H60.7891V59.7045H61.3151V59.1134Z" fill="black"/>
<path d="M62.3678 59.1133H61.8418V59.7044H62.3678V59.1133Z" fill="black"/>
<path d="M62.8932 59.1134H62.3672V59.7045H62.8932V59.1134Z" fill="black"/>
<path d="M63.9459 59.1133H63.4199V59.7044H63.9459V59.1133Z" fill="black"/>
<path d="M64.4713 59.1134H63.9453V59.7045H64.4713V59.1134Z" fill="black"/>
<path d="M66.0494 59.1134H65.5234V59.7045H66.0494V59.1134Z" fill="black"/>
<path d="M67.6276 59.1133H67.1016V59.7044H67.6276V59.1133Z" fill="black"/>
<path d="M52.8991 59.7042H52.373V60.2953H52.8991V59.7042Z" fill="black"/>
<path d="M53.4244 59.7043H52.8984V60.2954H53.4244V59.7043Z" fill="black"/>
<path d="M55.0026 59.7043H54.4766V60.2954H55.0026V59.7043Z" fill="black"/>
<path d="M55.5299 59.7043H55.0039V60.2954H55.5299V59.7043Z" fill="black"/>
<path d="M56.5807 59.7043H56.0547V60.2954H56.5807V59.7043Z" fill="black"/>
<path d="M57.108 59.7043H56.582V60.2954H57.108V59.7043Z" fill="black"/>
<path d="M57.6334 59.7042H57.1074V60.2953H57.6334V59.7042Z" fill="black"/>
<path d="M58.1588 59.7043H57.6328V60.2954H58.1588V59.7043Z" fill="black"/>
<path d="M58.6862 59.7043H58.1602V60.2954H58.6862V59.7043Z" fill="black"/>
<path d="M59.7369 59.7043H59.2109V60.2954H59.7369V59.7043Z" fill="black"/>
<path d="M60.7897 59.7043H60.2637V60.2954H60.7897V59.7043Z" fill="black"/>
<path d="M61.3151 59.7042H60.7891V60.2953H61.3151V59.7042Z" fill="black"/>
<path d="M62.8932 59.7042H62.3672V60.2953H62.8932V59.7042Z" fill="black"/>
<path d="M63.9459 59.7043H63.4199V60.2954H63.9459V59.7043Z" fill="black"/>
<path d="M64.4713 59.7042H63.9453V60.2953H64.4713V59.7042Z" fill="black"/>
<path d="M64.9967 59.7043H64.4707V60.2954H64.9967V59.7043Z" fill="black"/>
<path d="M65.5241 59.7043H64.998V60.2954H65.5241V59.7043Z" fill="black"/>
<path d="M66.0494 59.7042H65.5234V60.2953H66.0494V59.7042Z" fill="black"/>
<path d="M66.5748 59.7043H66.0488V60.2954H66.5748V59.7043Z" fill="black"/>
<path d="M52.8991 60.2948H52.373V60.8859H52.8991V60.2948Z" fill="black"/>
<path d="M53.4244 60.2952H52.8984V60.8863H53.4244V60.2952Z" fill="black"/>
<path d="M53.9518 60.2952H53.4258V60.8863H53.9518V60.2952Z" fill="black"/>
<path d="M55.5299 60.2952H55.0039V60.8863H55.5299V60.2952Z" fill="black"/>
<path d="M56.0553 60.2948H55.5293V60.8859H56.0553V60.2948Z" fill="black"/>
<path d="M57.6334 60.2948H57.1074V60.8859H57.6334V60.2948Z" fill="black"/>
<path d="M58.1588 60.2949H57.6328V60.886H58.1588V60.2949Z" fill="black"/>
<path d="M59.2116 60.2952H58.6855V60.8863H59.2116V60.2952Z" fill="black"/>
<path d="M59.7369 60.2949H59.2109V60.886H59.7369V60.2949Z" fill="black"/>
<path d="M61.8405 60.2952H61.3145V60.8863H61.8405V60.2952Z" fill="black"/>
<path d="M62.8932 60.2948H62.3672V60.8859H62.8932V60.2948Z" fill="black"/>
<path d="M63.4186 60.2949H62.8926V60.886H63.4186V60.2949Z" fill="black"/>
<path d="M63.9459 60.2952H63.4199V60.8863H63.9459V60.2952Z" fill="black"/>
<path d="M64.4713 60.2948H63.9453V60.8859H64.4713V60.2948Z" fill="black"/>
<path d="M64.9967 60.2949H64.4707V60.886H64.9967V60.2949Z" fill="black"/>
<path d="M65.5241 60.2952H64.998V60.8863H65.5241V60.2952Z" fill="black"/>
<path d="M66.0494 60.2948H65.5234V60.8859H66.0494V60.2948Z" fill="black"/>
<path d="M66.5748 60.2949H66.0488V60.886H66.5748V60.2949Z" fill="black"/>
<path d="M67.1022 60.2952H66.5762V60.8863H67.1022V60.2952Z" fill="black"/>
<path d="M57.108 60.8865H56.582V61.4776H57.108V60.8865Z" fill="black"/>
<path d="M58.6862 60.8865H58.1602V61.4776H58.6862V60.8865Z" fill="black"/>
<path d="M59.7369 60.8865H59.2109V61.4776H59.7369V60.8865Z" fill="black"/>
<path d="M61.3151 60.8865H60.7891V61.4776H61.3151V60.8865Z" fill="black"/>
<path d="M61.8405 60.8865H61.3145V61.4776H61.8405V60.8865Z" fill="black"/>
<path d="M62.3678 60.8865H61.8418V61.4776H62.3678V60.8865Z" fill="black"/>
<path d="M63.4186 60.8865H62.8926V61.4776H63.4186V60.8865Z" fill="black"/>
<path d="M65.5241 60.8865H64.998V61.4776H65.5241V60.8865Z" fill="black"/>
<path d="M66.0494 60.8865H65.5234V61.4776H66.0494V60.8865Z" fill="black"/>
<path d="M57.108 61.4773H56.582V62.0684H57.108V61.4773Z" fill="black"/>
<path d="M59.7369 61.4773H59.2109V62.0684H59.7369V61.4773Z" fill="black"/>
<path d="M60.7897 61.4773H60.2637V62.0684H60.7897V61.4773Z" fill="black"/>
<path d="M61.3151 61.4773H60.7891V62.0684H61.3151V61.4773Z" fill="black"/>
<path d="M62.8932 61.4773H62.3672V62.0684H62.8932V61.4773Z" fill="black"/>
<path d="M63.4186 61.4773H62.8926V62.0684H63.4186V61.4773Z" fill="black"/>
<path d="M64.4713 61.4773H63.9453V62.0684H64.4713V61.4773Z" fill="black"/>
<path d="M65.5241 61.4773H64.998V62.0684H65.5241V61.4773Z" fill="black"/>
<path d="M66.0494 61.4773H65.5234V62.0684H66.0494V61.4773Z" fill="black"/>
<path d="M57.108 62.0682H56.582V62.6593H57.108V62.0682Z" fill="black"/>
<path d="M57.6334 62.0682H57.1074V62.6593H57.6334V62.0682Z" fill="black"/>
<path d="M58.1588 62.0682H57.6328V62.6593H58.1588V62.0682Z" fill="black"/>
<path d="M59.2116 62.0682H58.6855V62.6593H59.2116V62.0682Z" fill="black"/>
<path d="M59.7369 62.0682H59.2109V62.6593H59.7369V62.0682Z" fill="black"/>
<path d="M61.3151 62.0682H60.7891V62.6593H61.3151V62.0682Z" fill="black"/>
<path d="M61.8405 62.0682H61.3145V62.6593H61.8405V62.0682Z" fill="black"/>
<path d="M62.8932 62.0682H62.3672V62.6593H62.8932V62.0682Z" fill="black"/>
<path d="M63.4186 62.0682H62.8926V62.6593H63.4186V62.0682Z" fill="black"/>
<path d="M65.5241 62.0682H64.998V62.6593H65.5241V62.0682Z" fill="black"/>
<path d="M67.1022 62.0682H66.5762V62.6593H67.1022V62.0682Z" fill="black"/>
<path d="M67.6276 62.0682H67.1016V62.6593H67.6276V62.0682Z" fill="black"/>
<path d="M57.108 62.6602H56.582V63.2512H57.108V62.6602Z" fill="black"/>
<path d="M58.6862 62.6602H58.1602V63.2512H58.6862V62.6602Z" fill="black"/>
<path d="M59.2116 62.6602H58.6855V63.2512H59.2116V62.6602Z" fill="black"/>
<path d="M59.7369 62.6602H59.2109V63.2512H59.7369V62.6602Z" fill="black"/>
<path d="M60.7897 62.6602H60.2637V63.2512H60.7897V62.6602Z" fill="black"/>
<path d="M61.3151 62.6602H60.7891V63.2512H61.3151V62.6602Z" fill="black"/>
<path d="M62.8932 62.6602H62.3672V63.2512H62.8932V62.6602Z" fill="black"/>
<path d="M63.4186 62.6602H62.8926V63.2512H63.4186V62.6602Z" fill="black"/>
<path d="M63.9459 62.6602H63.4199V63.2512H63.9459V62.6602Z" fill="black"/>
<path d="M64.4713 62.6602H63.9453V63.2512H64.4713V62.6602Z" fill="black"/>
<path d="M64.9967 62.6602H64.4707V63.2512H64.9967V62.6602Z" fill="black"/>
<path d="M65.5241 62.6602H64.998V63.2512H65.5241V62.6602Z" fill="black"/>
<path d="M66.0494 62.6602H65.5234V63.2512H66.0494V62.6602Z" fill="black"/>
<path d="M57.108 63.25H56.582V63.8411H57.108V63.25Z" fill="black"/>
<path d="M59.2116 63.25H58.6855V63.8411H59.2116V63.25Z" fill="black"/>
<path d="M59.7369 63.2511H59.2109V63.8422H59.7369V63.2511Z" fill="black"/>
<path d="M60.2643 63.25H59.7383V63.8411H60.2643V63.25Z" fill="black"/>
<path d="M61.3151 63.2511H60.7891V63.8422H61.3151V63.2511Z" fill="black"/>
<path d="M61.8405 63.25H61.3145V63.8411H61.8405V63.25Z" fill="black"/>
<path d="M62.3678 63.25H61.8418V63.8411H62.3678V63.25Z" fill="black"/>
<path d="M62.8932 63.2511H62.3672V63.8422H62.8932V63.2511Z" fill="black"/>
<path d="M63.4186 63.2511H62.8926V63.8422H63.4186V63.2511Z" fill="black"/>
<path d="M63.9459 63.25H63.4199V63.8411H63.9459V63.25Z" fill="black"/>
<path d="M64.9967 63.2511H64.4707V63.8422H64.9967V63.2511Z" fill="black"/>
<path d="M67.1022 63.25H66.5762V63.8411H67.1022V63.25Z" fill="black"/>
<path d="M58.1588 63.842H57.6328V64.4331H58.1588V63.842Z" fill="black"/>
<path d="M59.7369 63.842H59.2109V64.4331H59.7369V63.842Z" fill="black"/>
<path d="M61.3151 63.842H60.7891V64.4331H61.3151V63.842Z" fill="black"/>
<path d="M63.9459 63.842H63.4199V64.4331H63.9459V63.842Z" fill="black"/>
<path d="M64.9967 63.842H64.4707V64.4331H64.9967V63.842Z" fill="black"/>
<path d="M65.5241 63.842H64.998V64.4331H65.5241V63.842Z" fill="black"/>
<path d="M66.5748 63.842H66.0488V64.4331H66.5748V63.842Z" fill="black"/>
<path d="M67.1022 63.842H66.5762V64.4331H67.1022V63.842Z" fill="black"/>
<path d="M67.6276 63.842H67.1016V64.4331H67.6276V63.842Z" fill="black"/>
<path d="M58.6862 64.4329H58.1602V65.024H58.6862V64.4329Z" fill="black"/>
<path d="M59.7369 64.4329H59.2109V65.024H59.7369V64.4329Z" fill="black"/>
<path d="M60.7897 64.4329H60.2637V65.024H60.7897V64.4329Z" fill="black"/>
<path d="M63.9459 64.4329H63.4199V65.024H63.9459V64.4329Z" fill="black"/>
<path d="M64.9967 64.4329H64.4707V65.024H64.9967V64.4329Z" fill="black"/>
<path d="M66.0494 64.4329H65.5234V65.024H66.0494V64.4329Z" fill="black"/>
<path d="M66.5748 64.4329H66.0488V65.024H66.5748V64.4329Z" fill="black"/>
<path d="M67.6276 64.4329H67.1016V65.024H67.6276V64.4329Z" fill="black"/>
<path d="M57.108 65.0238H56.582V65.6149H57.108V65.0238Z" fill="black"/>
<path d="M58.6862 65.0238H58.1602V65.6149H58.6862V65.0238Z" fill="black"/>
<path d="M59.2116 65.0238H58.6855V65.6149H59.2116V65.0238Z" fill="black"/>
<path d="M61.8405 65.0238H61.3145V65.6149H61.8405V65.0238Z" fill="black"/>
<path d="M62.3678 65.0238H61.8418V65.6149H62.3678V65.0238Z" fill="black"/>
<path d="M62.8932 65.0238H62.3672V65.6149H62.8932V65.0238Z" fill="black"/>
<path d="M63.4186 65.0238H62.8926V65.6149H63.4186V65.0238Z" fill="black"/>
<path d="M64.4713 65.0238H63.9453V65.6149H64.4713V65.0238Z" fill="black"/>
<path d="M65.5241 65.0238H64.998V65.6149H65.5241V65.0238Z" fill="black"/>
<path d="M66.0494 65.0238H65.5234V65.6149H66.0494V65.0238Z" fill="black"/>
<path d="M55.5032 49.0942H52.9258V51.9906H55.5032V49.0942Z" fill="black"/>
<path d="M55.5028 48.4736H52.9254H52.373V49.0943V51.9906V52.6113H52.9254H55.5028H56.0551V51.9906V49.0943V48.4736H55.5028ZM55.5028 51.9906H52.9254V49.0943H55.5028V51.9906Z" fill="black"/>
<path d="M67.0755 49.0941H64.498V51.9905H67.0755V49.0941Z" fill="black"/>
<path d="M67.0751 48.4735H64.4976H63.9453V49.0942V51.9905V52.6111H64.4976H67.0751H67.6274V51.9905V49.0942V48.4735H67.0751ZM67.0751 51.9905H64.4976V49.0942H67.0751V51.9905Z" fill="black"/>
<path d="M55.5032 62.0979H52.9258V64.9942H55.5032V62.0979Z" fill="black"/>
<path d="M55.5028 61.4773H52.9254H52.373V62.0979V64.9943V65.6149H52.9254H55.5028H56.0551V64.9943V62.0979V61.4773H55.5028ZM55.5028 64.9943H52.9254V62.0979H55.5028V64.9943Z" fill="black"/>
<path d="M55.0038 49.6554H53.4258V51.4287H55.0038V49.6554Z" fill="black"/>
<path d="M66.5761 49.6554H64.998V51.4287H66.5761V49.6554Z" fill="black"/>
<path d="M55.0038 62.6602H53.4258V64.4334H55.0038V62.6602Z" fill="black"/>
</g>
</g>
<defs>
<filter id="filter0_dd_482_3302" x="0.5" y="0.0333333" width="119" height="119" filterUnits="userSpaceOnUse" color-interpolation-filters="sRGB">
<feFlood flood-opacity="0" result="BackgroundImageFix"/>
<feColorMatrix in="SourceAlpha" type="matrix" values="0 0 0 0 0 0 0 0 0 0 0 0 0 0 0 0 0 0 127 0" result="hardAlpha"/>
<feOffset dy="2.53333"/>
<feGaussianBlur stdDeviation="9.5"/>
<feComposite in2="hardAlpha" operator="out"/>
<feColorMatrix type="matrix" values="0 0 0 0 0 0 0 0 0 0 0 0 0 0 0 0 0 0 0.25 0"/>
<feBlend mode="normal" in2="BackgroundImageFix" result="effect1_dropShadow_482_3302"/>
<feColorMatrix in="SourceAlpha" type="matrix" values="0 0 0 0 0 0 0 0 0 0 0 0 0 0 0 0 0 0 127 0" result="hardAlpha"/>
<feOffset dy="2.53333"/>
<feGaussianBlur stdDeviation="1.26667"/>
<feComposite in2="hardAlpha" operator="out"/>
<feColorMatrix type="matrix" values="0 0 0 0 0 0 0 0 0 0 0 0 0 0 0 0 0 0 0.2 0"/>
<feBlend mode="normal" in2="effect1_dropShadow_482_3302" result="effect2_dropShadow_482_3302"/>
<feBlend mode="normal" in="SourceGraphic" in2="effect2_dropShadow_482_3302" result="shape"/>
</filter>
<filter id="filter1_i_482_3302" x="19.5" y="16.5" width="81" height="81" filterUnits="userSpaceOnUse" color-interpolation-filters="sRGB">
<feFlood flood-opacity="0" result="BackgroundImageFix"/>
<feBlend mode="normal" in="SourceGraphic" in2="BackgroundImageFix" result="shape"/>
<feColorMatrix in="SourceAlpha" type="matrix" values="0 0 0 0 0 0 0 0 0 0 0 0 0 0 0 0 0 0 127 0" result="hardAlpha"/>
<feMorphology radius="6.33333" operator="erode" in="SourceAlpha" result="effect1_innerShadow_482_3302"/>
<feOffset/>
<feGaussianBlur stdDeviation="2.53333"/>
<feComposite in2="hardAlpha" operator="arithmetic" k2="-1" k3="1"/>
<feColorMatrix type="matrix" values="0 0 0 0 0 0 0 0 0 0 0 0 0 0 0 0 0 0 0.25 0"/>
<feBlend mode="normal" in2="shape" result="effect1_innerShadow_482_3302"/>
</filter>
<linearGradient id="paint0_linear_482_3302" x1="60" y1="3" x2="60" y2="111" gradientUnits="userSpaceOnUse">
<stop/>
<stop offset="1"/>
</linearGradient>
<clipPath id="clip0_482_3302">
<rect width="25.6271" height="45.1525" fill="white" transform="translate(46.8809 34.7288)"/>
</clipPath>
</defs>
</svg>
